<?xml version="1.0" encoding="utf-8"?>
<!-- Generator: Adobe Illustrator 18.0.0, SVG Export Plug-In . SVG Version: 6.00 Build 0)  -->
<!DOCTYPE svg PUBLIC "-//W3C//DTD SVG 1.1//EN" "http://www.w3.org/Graphics/SVG/1.1/DTD/svg11.dtd">
<svg version="1.1" id="Livello_1" xmlns="http://www.w3.org/2000/svg" xmlns:xlink="http://www.w3.org/1999/xlink" x="0px" y="0px"
	 viewBox="0 0 24 24.6" enable-background="new 0 0 24 24.6" xml:space="preserve">
<title>Git</title>
<description>Git Logo by Jason Long is licensed under the Creative Commons Attribution 3.0 Unported License.</description>
<g>
	<path fill="#FAA81A" d="M9.6,20.9c-1-0.1-1.7-0.6-2.2-1.4c-0.1-0.1-0.1-0.2-0.2-0.3c0-0.1-0.1-0.1-0.2-0.2c-0.4-0.1-0.7-0.4-1-0.7
		c-0.3-0.3-0.4-0.6-0.5-1c-0.1-0.4-0.1-0.7-0.1-1.1c0-0.6,0.2-1.1,0.6-1.5c0.1-0.1,0.1-0.1,0.2-0.2c0.1,0.3,0.2,0.6,0.3,0.9
		c0.2,0.3,0.3,0.5,0.6,0.7c0-0.1,0-0.2,0-0.2c0-0.3,0.1-0.7,0.1-1c0-0.3,0-0.7,0-1c0-0.3-0.1-0.5-0.3-0.8c-0.1-0.1-0.2-0.2-0.3-0.2
		c-0.2-0.1-0.5-0.3-0.7-0.4c-0.2-0.1-0.4-0.2-0.6-0.4c-0.2-0.1-0.3-0.3-0.4-0.5C5,11.1,5,10.6,5.5,10.2c0.1-0.1,0.2-0.1,0.2-0.2
		C5.9,9.9,5.9,9.8,6,9.6C6,9.3,6,9,6,8.7c0-0.1,0-0.2-0.1-0.3C5.7,8.1,5.6,7.9,5.5,7.6c-0.1-0.3,0-0.7,0.2-0.9
		c0.1-0.2,0.3-0.2,0.5-0.3c0.1,0,0.2,0,0.4-0.1c0.1,0,0.1,0,0.1-0.1c0-0.2,0.1-0.3,0.1-0.5c0-0.2-0.1-0.4-0.3-0.6
		C6.3,4.9,6.1,4.8,5.8,4.7c-0.2,0-0.3-0.1-0.5-0.1c0,0,0,0-0.1,0c0,0,0-0.1,0.1-0.1C5.6,4.1,6,3.9,6.5,3.7c0.3-0.1,0.6-0.1,0.9-0.1
		c0.4,0,0.8,0.1,1.1,0.3c0.4,0.2,0.8,0.5,1.1,0.9C9.7,4.9,9.7,5,9.8,5.1c0,0.1,0.1,0.1,0.1,0c0.2,0,0.1,0,0.1-0.2
		c0-0.6,0.3-1.1,0.8-1.5c0,0,0.1-0.1,0.1-0.1c0,0,0.1,0,0.1,0c0,0.1,0,0.1,0,0.2c0,0.2,0,0.4,0.1,0.6c0,0.1,0.1,0.1,0.1,0.2
		c0,0,0,0,0,0c0,0,0-0.1,0-0.1c0.1-0.5,0.3-0.8,0.7-1.1c0.2-0.1,0.4-0.2,0.6-0.3c0,0,0,0,0,0c0,0.2-0.1,0.3-0.1,0.4
		c0,0.1,0,0.3,0,0.4c0,0.1,0.1,0.3,0.1,0.4c0,0,0.1,0,0.1-0.1c0.2-0.1,0.3-0.3,0.5-0.4c0.2-0.1,0.3-0.1,0.5-0.1c0,0,0.1,0,0.1,0
		c0,0,0,0.1,0,0.1c-0.1,0.2-0.2,0.4-0.3,0.7c0,0.2-0.1,0.4,0,0.5c0,0.1,0,0.1,0.1,0.1c0.1,0,0.2,0,0.3,0.1c0,0,0.1,0,0.1,0
		c0.2-0.2,0.3-0.4,0.5-0.5c0.2-0.2,0.4-0.4,0.6-0.5c0.4-0.2,0.7-0.4,1.2-0.4c0.6-0.1,1.1,0,1.6,0.3c0.3,0.2,0.4,0.3,0.6,0.5
		c-0.1,0-0.2,0-0.2,0c-0.3,0.1-0.6,0.2-0.8,0.3c-0.1,0.1-0.2,0.1-0.2,0.2c-0.1,0.1-0.2,0.3-0.2,0.5c0,0.2,0,0.3,0,0.5
		c0,0.1,0,0.1,0,0.2c0.1,0,0.2,0,0.3,0c0.2,0,0.4,0.1,0.6,0.2c0.3,0.2,0.5,0.6,0.5,1c0,0.3-0.2,0.6-0.3,0.8c0,0,0,0.1-0.1,0.1
		C18,8.5,18,8.6,18,8.7c0,0.3,0,0.5,0,0.8c0,0.1,0,0.2,0,0.2c0,0.1,0.1,0.2,0.2,0.3c0.1,0.1,0.1,0.1,0.2,0.2
		c0.5,0.4,0.6,1.1,0.2,1.6c-0.1,0.2-0.3,0.3-0.5,0.5c-0.3,0.2-0.6,0.4-0.9,0.6C17.1,12.8,17,12.9,17,13c-0.2,0.3-0.3,0.5-0.3,0.8
		c0,0.2,0,0.4,0,0.6c0,0.3,0,0.6,0,0.9c0,0.2,0,0.4,0.1,0.7c0,0,0,0.1,0,0.1c0.1,0,0.4-0.4,0.6-0.7c0.2-0.3,0.3-0.6,0.3-0.9
		c0,0,0.1,0,0.1,0.1c0.2,0.2,0.3,0.4,0.5,0.7c0.1,0.3,0.2,0.6,0.2,0.9c0,0.5,0,1.1-0.2,1.6c-0.2,0.5-0.6,0.9-1.1,1.2
		c-0.1,0-0.2,0.1-0.3,0.1c-0.1,0-0.2,0.1-0.2,0.2c-0.3,0.6-0.8,1.1-1.5,1.4c-0.3,0.1-0.6,0.2-0.8,0.2c0,0,0,0,0,0c0,0,0,0,0,0
		c0.3-0.3,0.6-0.6,0.8-1c0.2-0.3,0.3-0.7,0.4-1.1c0.1-0.1,0.1-0.3,0.1-0.4c0-0.4-0.1-0.6-0.4-0.8c-0.2-0.1-0.4-0.2-0.6-0.2
		c-0.2,0-0.4,0-0.6,0c-1.4,0-2.8,0-4.2,0c-0.3,0-0.6,0-0.8,0.1c-0.2,0.1-0.4,0.2-0.6,0.5c-0.1,0.2-0.1,0.4-0.1,0.6
		c0,0.2,0.1,0.5,0.2,0.7c0.1,0.4,0.3,0.7,0.5,1.1C9.2,20.4,9.4,20.6,9.6,20.9C9.6,20.8,9.6,20.8,9.6,20.9
		C9.7,20.8,9.6,20.8,9.6,20.9z M10.5,11.5C10.6,11.5,10.6,11.4,10.5,11.5c0.2,0,0.4-0.1,0.5-0.2c0.1-0.1,0.2-0.2,0.2-0.4
		c0,0,0-0.1,0-0.1c0,0-0.1,0-0.1,0c-0.4,0.1-0.7,0.1-1-0.1c-0.1-0.1-0.2-0.2-0.3-0.2c-0.3-0.3-0.6-0.6-1-0.8
		C8.5,9.3,8.1,9.2,7.6,9.2c-0.1,0-0.3,0-0.4,0c-0.1,0-0.1,0-0.2,0c0,0,0,0,0,0c0.1,0,0.3,0.1,0.4,0.1C7.3,9.5,7.2,9.6,7.2,9.7
		c-0.1,0.3,0,0.5,0.2,0.8c0,0,0,0,0,0c0-0.2,0-0.4,0.1-0.5c0,0,0,0,0,0c0,0.2,0.1,0.5,0.2,0.7c0.1,0.2,0.2,0.4,0.4,0.5
		c0.4,0.3,0.8,0.5,1.2,0.4c0.2,0,0.4-0.1,0.6-0.2c0,0,0,0,0.1,0c0,0,0,0,0,0c0.1,0.2,0.1,0.4,0.1,0.6c0,0.2,0,0.4-0.1,0.5
		c0,0,0,0,0,0.1c0,0,0,0,0,0c0,0,0,0,0.1-0.1c0.1-0.1,0.2-0.2,0.2-0.4c0.1-0.2,0.2-0.3,0.2-0.5C10.5,11.6,10.5,11.5,10.5,11.5z
		 M13.4,11.5c0,0.2,0.1,0.4,0.2,0.6c0.1,0.2,0.2,0.4,0.4,0.5c0,0,0,0,0-0.1c0-0.1,0-0.1,0-0.2c-0.1-0.3-0.1-0.6,0.1-0.9
		c0,0,0,0,0-0.1c0,0,0,0,0,0c0.3,0.2,0.6,0.3,0.9,0.2c0.2,0,0.5-0.1,0.7-0.2c0.3-0.1,0.5-0.4,0.7-0.7c0-0.1,0.1-0.2,0.1-0.3
		c0.1-0.3,0.1-0.5,0.1-0.8c0,0,0-0.1,0-0.1c0,0,0,0,0,0c0.1,0.2,0.1,0.3,0.2,0.5c0,0,0,0.1,0,0.1c0,0,0,0,0,0c0,0,0,0,0,0
		c0.1-0.1,0.1-0.3,0.1-0.4c0-0.2,0-0.4-0.2-0.5c0,0,0,0,0,0c0.1,0,0.2-0.1,0.3-0.1c0,0,0,0,0,0c0,0,0,0,0,0c-0.3-0.1-0.6-0.1-0.8,0
		c-0.3,0-0.6,0.1-0.9,0.3c-0.5,0.2-0.9,0.5-1.2,0.9c-0.1,0.1-0.1,0.1-0.2,0.2c-0.3,0.3-0.7,0.3-1.1,0.2c0,0,0,0-0.1,0
		c0,0,0,0.1,0,0.1c0,0.1,0.1,0.2,0.2,0.3c0.1,0.1,0.3,0.2,0.4,0.2C13.3,11.4,13.3,11.5,13.4,11.5z"/>
	<path fill="#FAA81A" d="M12,17.7c0.7,0,1.5,0,2.2,0c0.2,0,0.4,0,0.5,0.1c0.1,0,0.1,0.1,0.2,0.1c0.1,0.1,0.2,0.2,0.2,0.4
		c0,0.1,0,0.3,0,0.4c-0.1,0.5-0.4,1-0.7,1.4c-0.4,0.5-1,0.9-1.7,1c-0.3,0.1-0.6,0.1-1,0.1c-0.5,0-1-0.2-1.5-0.4
		c-0.2-0.2-0.5-0.3-0.7-0.6c-0.4-0.4-0.6-1-0.8-1.5c0-0.1,0-0.2,0-0.4c0-0.2,0.1-0.3,0.2-0.4c0.1-0.1,0.2-0.1,0.4-0.1
		c0.1,0,0.3,0,0.4,0C10.6,17.7,11.3,17.7,12,17.7z"/>
	<path fill="#FAA81A" d="M8.2,9.8c0.5,0.2,1.4,1,1.6,1.3c0,0,0,0-0.1,0c-0.2,0.1-0.5,0.2-0.7,0.1c-0.2,0-0.4-0.1-0.6-0.3
		c-0.1-0.1-0.2-0.2-0.2-0.3C8.1,10.4,8.1,10.1,8.2,9.8C8.2,9.8,8.2,9.8,8.2,9.8z"/>
	<path fill="#FAA81A" d="M15.7,9.8c0,0.1,0.1,0.2,0.1,0.3c0,0.2,0,0.4-0.1,0.6c-0.1,0.1-0.2,0.3-0.3,0.3c-0.2,0.2-0.5,0.2-0.8,0.2
		c-0.2,0-0.3-0.1-0.5-0.2c0,0,0-0.1,0.1-0.1c0.2-0.2,0.4-0.4,0.6-0.6C15,10.2,15.3,10,15.7,9.8C15.6,9.8,15.7,9.8,15.7,9.8z"/>
</g>
</svg>
